<svg xmlns="http://www.w3.org/2000/svg" xmlns:rdkit="http://www.rdkit.org/xml" xmlns:xlink="http://www.w3.org/1999/xlink" version="1.1" baseProfile="full" xml:space="preserve" width="600px" height="200px" viewBox="0 0 600 200">
<!-- END OF HEADER -->
<rect style="opacity:1.0;fill:#FFFFFF;stroke:none" width="600.0" height="200.0" x="0.0" y="0.0"> </rect>
<ellipse cx="263.9" cy="181.0" rx="9.0" ry="9.0" class="atom-0" style="fill:#2CA02CA5;fill-rule:evenodd;stroke:#2CA02CA5;stroke-width:1.0px;stroke-linecap:butt;stroke-linejoin:miter;stroke-opacity:1"/>
<ellipse cx="293.2" cy="146.8" rx="9.0" ry="9.3" class="atom-1" style="fill:#2CA02CA5;fill-rule:evenodd;stroke:#2CA02CA5;stroke-width:1.0px;stroke-linecap:butt;stroke-linejoin:miter;stroke-opacity:1"/>
<ellipse cx="278.2" cy="104.1" rx="9.0" ry="9.0" class="atom-2" style="fill:#FF7F0EA5;fill-rule:evenodd;stroke:#FF7F0EA5;stroke-width:1.0px;stroke-linecap:butt;stroke-linejoin:miter;stroke-opacity:1"/>
<ellipse cx="233.8" cy="95.9" rx="9.0" ry="9.0" class="atom-3" style="fill:#1F77B4A5;fill-rule:evenodd;stroke:#1F77B4A5;stroke-width:1.0px;stroke-linecap:butt;stroke-linejoin:miter;stroke-opacity:1"/>
<ellipse cx="218.8" cy="53.3" rx="9.0" ry="9.0" class="atom-4" style="fill:#1F77B4A5;fill-rule:evenodd;stroke:#1F77B4A5;stroke-width:1.0px;stroke-linecap:butt;stroke-linejoin:miter;stroke-opacity:1"/>
<ellipse cx="248.1" cy="19.0" rx="9.0" ry="9.0" class="atom-5" style="fill:#1F77B4A5;fill-rule:evenodd;stroke:#1F77B4A5;stroke-width:1.0px;stroke-linecap:butt;stroke-linejoin:miter;stroke-opacity:1"/>
<ellipse cx="292.5" cy="27.3" rx="9.0" ry="9.0" class="atom-6" style="fill:#1F77B4A5;fill-rule:evenodd;stroke:#1F77B4A5;stroke-width:1.0px;stroke-linecap:butt;stroke-linejoin:miter;stroke-opacity:1"/>
<ellipse cx="307.5" cy="69.8" rx="9.0" ry="9.0" class="atom-7" style="fill:#D62728A5;fill-rule:evenodd;stroke:#D62728A5;stroke-width:1.0px;stroke-linecap:butt;stroke-linejoin:miter;stroke-opacity:1"/>
<ellipse cx="355.9" cy="78.0" rx="12.5" ry="9.1" class="atom-8" style="fill:#D62728A5;fill-rule:evenodd;stroke:#D62728A5;stroke-width:1.0px;stroke-linecap:butt;stroke-linejoin:miter;stroke-opacity:1"/>
<ellipse cx="370.0" cy="120.7" rx="12.7" ry="9.3" class="atom-9" style="fill:#D62728A5;fill-rule:evenodd;stroke:#D62728A5;stroke-width:1.0px;stroke-linecap:butt;stroke-linejoin:miter;stroke-opacity:1"/>
<ellipse cx="381.2" cy="43.9" rx="9.0" ry="9.3" class="atom-10" style="fill:#D62728A5;fill-rule:evenodd;stroke:#D62728A5;stroke-width:1.0px;stroke-linecap:butt;stroke-linejoin:miter;stroke-opacity:1"/>
<path class="bond-0 atom-0 atom-1" d="M 263.9,181.0 L 286.3,154.8" style="fill:none;fill-rule:evenodd;stroke:#000000;stroke-width:2.0px;stroke-linecap:butt;stroke-linejoin:miter;stroke-opacity:1"/>
<path class="bond-1 atom-1 atom-2" d="M 290.4,138.7 L 278.2,104.1" style="fill:none;fill-rule:evenodd;stroke:#000000;stroke-width:2.0px;stroke-linecap:butt;stroke-linejoin:miter;stroke-opacity:1"/>
<path class="bond-2 atom-2 atom-3" d="M 278.2,104.1 L 233.8,95.9" style="fill:none;fill-rule:evenodd;stroke:#000000;stroke-width:2.0px;stroke-linecap:butt;stroke-linejoin:miter;stroke-opacity:1"/>
<path class="bond-2 atom-2 atom-3" d="M 275.6,96.8 L 238.9,89.9" style="fill:none;fill-rule:evenodd;stroke:#000000;stroke-width:2.0px;stroke-linecap:butt;stroke-linejoin:miter;stroke-opacity:1"/>
<path class="bond-3 atom-3 atom-4" d="M 233.8,95.9 L 218.8,53.3" style="fill:none;fill-rule:evenodd;stroke:#000000;stroke-width:2.0px;stroke-linecap:butt;stroke-linejoin:miter;stroke-opacity:1"/>
<path class="bond-4 atom-4 atom-5" d="M 218.8,53.3 L 248.1,19.0" style="fill:none;fill-rule:evenodd;stroke:#000000;stroke-width:2.0px;stroke-linecap:butt;stroke-linejoin:miter;stroke-opacity:1"/>
<path class="bond-4 atom-4 atom-5" d="M 226.5,54.8 L 250.7,26.4" style="fill:none;fill-rule:evenodd;stroke:#000000;stroke-width:2.0px;stroke-linecap:butt;stroke-linejoin:miter;stroke-opacity:1"/>
<path class="bond-5 atom-5 atom-6" d="M 248.1,19.0 L 292.5,27.3" style="fill:none;fill-rule:evenodd;stroke:#000000;stroke-width:2.0px;stroke-linecap:butt;stroke-linejoin:miter;stroke-opacity:1"/>
<path class="bond-6 atom-6 atom-7" d="M 292.5,27.3 L 307.5,69.8" style="fill:none;fill-rule:evenodd;stroke:#000000;stroke-width:2.0px;stroke-linecap:butt;stroke-linejoin:miter;stroke-opacity:1"/>
<path class="bond-6 atom-6 atom-7" d="M 287.4,33.2 L 299.8,68.4" style="fill:none;fill-rule:evenodd;stroke:#000000;stroke-width:2.0px;stroke-linecap:butt;stroke-linejoin:miter;stroke-opacity:1"/>
<path class="bond-7 atom-7 atom-8" d="M 307.5,69.8 L 345.6,76.9" style="fill:none;fill-rule:evenodd;stroke:#000000;stroke-width:2.0px;stroke-linecap:butt;stroke-linejoin:miter;stroke-opacity:1"/>
<path class="bond-8 atom-8 atom-9" d="M 354.7,85.9 L 364.1,112.7" style="fill:none;fill-rule:evenodd;stroke:#000000;stroke-width:2.0px;stroke-linecap:butt;stroke-linejoin:miter;stroke-opacity:1"/>
<path class="bond-9 atom-8 atom-10" d="M 361.3,72.3 L 376.8,54.1" style="fill:none;fill-rule:evenodd;stroke:#000000;stroke-width:2.0px;stroke-linecap:butt;stroke-linejoin:miter;stroke-opacity:1"/>
<path class="bond-9 atom-8 atom-10" d="M 356.1,67.9 L 371.7,49.7" style="fill:none;fill-rule:evenodd;stroke:#000000;stroke-width:2.0px;stroke-linecap:butt;stroke-linejoin:miter;stroke-opacity:1"/>
<path class="bond-10 atom-7 atom-2" d="M 307.5,69.8 L 278.2,104.1" style="fill:none;fill-rule:evenodd;stroke:#000000;stroke-width:2.0px;stroke-linecap:butt;stroke-linejoin:miter;stroke-opacity:1"/>
<path d="M 236.0,96.3 L 233.8,95.9 L 233.1,93.8" style="fill:none;stroke:#000000;stroke-width:2.0px;stroke-linecap:butt;stroke-linejoin:miter;stroke-miterlimit:10;stroke-opacity:1;"/>
<path d="M 219.5,55.5 L 218.8,53.3 L 220.2,51.6" style="fill:none;stroke:#000000;stroke-width:2.0px;stroke-linecap:butt;stroke-linejoin:miter;stroke-miterlimit:10;stroke-opacity:1;"/>
<path d="M 246.6,20.7 L 248.1,19.0 L 250.3,19.4" style="fill:none;stroke:#000000;stroke-width:2.0px;stroke-linecap:butt;stroke-linejoin:miter;stroke-miterlimit:10;stroke-opacity:1;"/>
<path d="M 290.3,26.9 L 292.5,27.3 L 293.2,29.4" style="fill:none;stroke:#000000;stroke-width:2.0px;stroke-linecap:butt;stroke-linejoin:miter;stroke-miterlimit:10;stroke-opacity:1;"/>
<path class="atom-1" d="M 287.4 146.7 Q 287.4 143.6, 288.9 141.9 Q 290.4 140.2, 293.2 140.2 Q 296.1 140.2, 297.6 141.9 Q 299.1 143.6, 299.1 146.7 Q 299.1 149.8, 297.6 151.6 Q 296.0 153.3, 293.2 153.3 Q 290.4 153.3, 288.9 151.6 Q 287.4 149.8, 287.4 146.7 M 293.2 151.9 Q 295.2 151.9, 296.2 150.6 Q 297.3 149.3, 297.3 146.7 Q 297.3 144.2, 296.2 142.9 Q 295.2 141.7, 293.2 141.7 Q 291.3 141.7, 290.2 142.9 Q 289.2 144.2, 289.2 146.7 Q 289.2 149.3, 290.2 150.6 Q 291.3 151.9, 293.2 151.9 " fill="#000000"/>
<path class="atom-8" d="M 349.1 71.7 L 353.3 78.4 Q 353.7 79.1, 354.3 80.3 Q 355.0 81.5, 355.0 81.6 L 355.0 71.7 L 356.7 71.7 L 356.7 84.5 L 355.0 84.5 L 350.5 77.1 Q 350.0 76.2, 349.4 75.2 Q 348.9 74.2, 348.7 73.9 L 348.7 84.5 L 347.0 84.5 L 347.0 71.7 L 349.1 71.7 " fill="#000000"/>
<path class="atom-8" d="M 359.1 74.0 L 361.4 74.0 L 361.4 71.6 L 362.4 71.6 L 362.4 74.0 L 364.7 74.0 L 364.7 74.8 L 362.4 74.8 L 362.4 77.2 L 361.4 77.2 L 361.4 74.8 L 359.1 74.8 L 359.1 74.0 " fill="#000000"/>
<path class="atom-9" d="M 361.1 120.6 Q 361.1 117.6, 362.6 115.9 Q 364.1 114.1, 366.9 114.1 Q 369.8 114.1, 371.3 115.9 Q 372.8 117.6, 372.8 120.6 Q 372.8 123.8, 371.3 125.5 Q 369.7 127.3, 366.9 127.3 Q 364.1 127.3, 362.6 125.5 Q 361.1 123.8, 361.1 120.6 M 366.9 125.8 Q 368.9 125.8, 369.9 124.5 Q 371.0 123.2, 371.0 120.6 Q 371.0 118.1, 369.9 116.9 Q 368.9 115.6, 366.9 115.6 Q 365.0 115.6, 363.9 116.9 Q 362.9 118.1, 362.9 120.6 Q 362.9 123.2, 363.9 124.5 Q 365.0 125.8, 366.9 125.8 " fill="#000000"/>
<path class="atom-9" d="M 374.6 116.2 L 379.0 116.2 L 379.0 117.2 L 374.6 117.2 L 374.6 116.2 " fill="#000000"/>
<path class="atom-10" d="M 375.4 43.8 Q 375.4 40.7, 376.9 39.0 Q 378.4 37.3, 381.2 37.3 Q 384.1 37.3, 385.6 39.0 Q 387.1 40.7, 387.1 43.8 Q 387.1 46.9, 385.6 48.7 Q 384.0 50.4, 381.2 50.4 Q 378.4 50.4, 376.9 48.7 Q 375.4 46.9, 375.4 43.8 M 381.2 49.0 Q 383.2 49.0, 384.2 47.7 Q 385.3 46.4, 385.3 43.8 Q 385.3 41.3, 384.2 40.0 Q 383.2 38.7, 381.2 38.7 Q 379.3 38.7, 378.2 40.0 Q 377.2 41.3, 377.2 43.8 Q 377.2 46.4, 378.2 47.7 Q 379.3 49.0, 381.2 49.0 " fill="#000000"/>
<rect x="1" y="5" width="18.0" height="18.0" fill="rgb(31, 119, 179)"/><text x="19.200000000000003" y="20" font-family="Helvetica" font-size="12" fill="black">aCH: 4</text><rect x="1" y="30" width="18.0" height="18.0" fill="rgb(255, 127, 13)"/><text x="19.200000000000003" y="45" font-family="Helvetica" font-size="12" fill="black">aC except as above: 1</text><rect x="1" y="55" width="18.0" height="18.0" fill="rgb(44, 159, 44)"/><text x="19.200000000000003" y="70" font-family="Helvetica" font-size="12" fill="black">CH3O: 1</text><rect x="1" y="80" width="18.0" height="18.0" fill="rgb(214, 39, 40)"/><text x="19.200000000000003" y="95" font-family="Helvetica" font-size="12" fill="black">aC-NO2: 1</text><text x="300.0" y="40" font-family="Helvetica" font-size="12" font-weight="bold" fill="black" text-anchor="middle"/></svg>