<svg xmlns="http://www.w3.org/2000/svg" xmlns:rdkit="http://www.rdkit.org/xml" xmlns:xlink="http://www.w3.org/1999/xlink" version="1.1" baseProfile="full" xml:space="preserve" width="400px" height="200px" viewBox="0 0 400 200">
<!-- END OF HEADER -->
<rect style="opacity:1.0;fill:#FFFFFF;stroke:none" width="400.0" height="200.0" x="0.0" y="0.0"> </rect>
<ellipse cx="132.2" cy="22.1" rx="12.1" ry="12.1" class="atom-0" style="fill:#FF7F0EA5;fill-rule:evenodd;stroke:#FF7F0EA5;stroke-width:1.0px;stroke-linecap:butt;stroke-linejoin:miter;stroke-opacity:1"/>
<ellipse cx="118.1" cy="80.7" rx="12.1" ry="12.1" class="atom-1" style="fill:#FF7F0EA5;fill-rule:evenodd;stroke:#FF7F0EA5;stroke-width:1.0px;stroke-linecap:butt;stroke-linejoin:miter;stroke-opacity:1"/>
<ellipse cx="62.4" cy="103.7" rx="12.1" ry="12.1" class="atom-2" style="fill:#1F77B4A5;fill-rule:evenodd;stroke:#1F77B4A5;stroke-width:1.0px;stroke-linecap:butt;stroke-linejoin:miter;stroke-opacity:1"/>
<ellipse cx="67.1" cy="163.8" rx="12.1" ry="12.1" class="atom-3" style="fill:#1F77B4A5;fill-rule:evenodd;stroke:#1F77B4A5;stroke-width:1.0px;stroke-linecap:butt;stroke-linejoin:miter;stroke-opacity:1"/>
<ellipse cx="125.7" cy="177.9" rx="12.1" ry="12.1" class="atom-4" style="fill:#1F77B4A5;fill-rule:evenodd;stroke:#1F77B4A5;stroke-width:1.0px;stroke-linecap:butt;stroke-linejoin:miter;stroke-opacity:1"/>
<ellipse cx="157.3" cy="126.6" rx="12.1" ry="12.1" class="atom-5" style="fill:#D62728A5;fill-rule:evenodd;stroke:#D62728A5;stroke-width:1.0px;stroke-linecap:butt;stroke-linejoin:miter;stroke-opacity:1"/>
<ellipse cx="217.4" cy="121.9" rx="12.1" ry="12.1" class="atom-6" style="fill:#2CA02CA5;fill-rule:evenodd;stroke:#2CA02CA5;stroke-width:1.0px;stroke-linecap:butt;stroke-linejoin:miter;stroke-opacity:1"/>
<ellipse cx="251.5" cy="171.6" rx="12.1" ry="12.1" class="atom-7" style="fill:#2CA02CA5;fill-rule:evenodd;stroke:#2CA02CA5;stroke-width:1.0px;stroke-linecap:butt;stroke-linejoin:miter;stroke-opacity:1"/>
<ellipse cx="311.6" cy="166.9" rx="12.1" ry="12.1" class="atom-8" style="fill:#2CA02CA5;fill-rule:evenodd;stroke:#2CA02CA5;stroke-width:1.0px;stroke-linecap:butt;stroke-linejoin:miter;stroke-opacity:1"/>
<ellipse cx="337.6" cy="112.5" rx="12.1" ry="12.1" class="atom-9" style="fill:#2CA02CA5;fill-rule:evenodd;stroke:#2CA02CA5;stroke-width:1.0px;stroke-linecap:butt;stroke-linejoin:miter;stroke-opacity:1"/>
<ellipse cx="303.5" cy="62.8" rx="12.1" ry="12.1" class="atom-10" style="fill:#2CA02CA5;fill-rule:evenodd;stroke:#2CA02CA5;stroke-width:1.0px;stroke-linecap:butt;stroke-linejoin:miter;stroke-opacity:1"/>
<ellipse cx="243.4" cy="67.5" rx="12.1" ry="12.1" class="atom-11" style="fill:#2CA02CA5;fill-rule:evenodd;stroke:#2CA02CA5;stroke-width:1.0px;stroke-linecap:butt;stroke-linejoin:miter;stroke-opacity:1"/>
<path class="bond-0 atom-0 atom-1" d="M 132.2,22.1 L 126.5,46.1" style="fill:none;fill-rule:evenodd;stroke:#000000;stroke-width:2.0px;stroke-linecap:butt;stroke-linejoin:miter;stroke-opacity:1"/>
<path class="bond-0 atom-0 atom-1" d="M 126.5,46.1 L 120.7,70.2" style="fill:none;fill-rule:evenodd;stroke:#0000FF;stroke-width:2.0px;stroke-linecap:butt;stroke-linejoin:miter;stroke-opacity:1"/>
<path class="bond-1 atom-1 atom-2" d="M 109.7,84.2 L 86.0,93.9" style="fill:none;fill-rule:evenodd;stroke:#0000FF;stroke-width:2.0px;stroke-linecap:butt;stroke-linejoin:miter;stroke-opacity:1"/>
<path class="bond-1 atom-1 atom-2" d="M 86.0,93.9 L 62.4,103.7" style="fill:none;fill-rule:evenodd;stroke:#000000;stroke-width:2.0px;stroke-linecap:butt;stroke-linejoin:miter;stroke-opacity:1"/>
<path class="bond-2 atom-2 atom-3" d="M 62.4,103.7 L 67.1,163.8" style="fill:none;fill-rule:evenodd;stroke:#000000;stroke-width:2.0px;stroke-linecap:butt;stroke-linejoin:miter;stroke-opacity:1"/>
<path class="bond-3 atom-3 atom-4" d="M 67.1,163.8 L 125.7,177.9" style="fill:none;fill-rule:evenodd;stroke:#000000;stroke-width:2.0px;stroke-linecap:butt;stroke-linejoin:miter;stroke-opacity:1"/>
<path class="bond-4 atom-4 atom-5" d="M 125.7,177.9 L 157.3,126.6" style="fill:none;fill-rule:evenodd;stroke:#000000;stroke-width:2.0px;stroke-linecap:butt;stroke-linejoin:miter;stroke-opacity:1"/>
<path class="bond-5 atom-5 atom-6" d="M 157.3,126.6 L 217.4,121.9" style="fill:none;fill-rule:evenodd;stroke:#000000;stroke-width:2.0px;stroke-linecap:butt;stroke-linejoin:miter;stroke-opacity:1"/>
<path class="bond-6 atom-6 atom-7" d="M 217.4,121.9 L 251.5,171.6" style="fill:none;fill-rule:evenodd;stroke:#000000;stroke-width:2.0px;stroke-linecap:butt;stroke-linejoin:miter;stroke-opacity:1"/>
<path class="bond-6 atom-6 atom-7" d="M 227.8,121.1 L 256.0,162.2" style="fill:none;fill-rule:evenodd;stroke:#000000;stroke-width:2.0px;stroke-linecap:butt;stroke-linejoin:miter;stroke-opacity:1"/>
<path class="bond-7 atom-7 atom-8" d="M 251.5,171.6 L 277.3,169.6" style="fill:none;fill-rule:evenodd;stroke:#000000;stroke-width:2.0px;stroke-linecap:butt;stroke-linejoin:miter;stroke-opacity:1"/>
<path class="bond-7 atom-7 atom-8" d="M 277.3,169.6 L 303.1,167.5" style="fill:none;fill-rule:evenodd;stroke:#0000FF;stroke-width:2.0px;stroke-linecap:butt;stroke-linejoin:miter;stroke-opacity:1"/>
<path class="bond-8 atom-8 atom-9" d="M 316.6,156.4 L 327.1,134.4" style="fill:none;fill-rule:evenodd;stroke:#0000FF;stroke-width:2.0px;stroke-linecap:butt;stroke-linejoin:miter;stroke-opacity:1"/>
<path class="bond-8 atom-8 atom-9" d="M 327.1,134.4 L 337.6,112.5" style="fill:none;fill-rule:evenodd;stroke:#000000;stroke-width:2.0px;stroke-linecap:butt;stroke-linejoin:miter;stroke-opacity:1"/>
<path class="bond-8 atom-8 atom-9" d="M 308.5,152.5 L 317.8,132.9" style="fill:none;fill-rule:evenodd;stroke:#0000FF;stroke-width:2.0px;stroke-linecap:butt;stroke-linejoin:miter;stroke-opacity:1"/>
<path class="bond-8 atom-8 atom-9" d="M 317.8,132.9 L 327.2,113.3" style="fill:none;fill-rule:evenodd;stroke:#000000;stroke-width:2.0px;stroke-linecap:butt;stroke-linejoin:miter;stroke-opacity:1"/>
<path class="bond-9 atom-9 atom-10" d="M 337.6,112.5 L 303.5,62.8" style="fill:none;fill-rule:evenodd;stroke:#000000;stroke-width:2.0px;stroke-linecap:butt;stroke-linejoin:miter;stroke-opacity:1"/>
<path class="bond-10 atom-10 atom-11" d="M 303.5,62.8 L 243.4,67.5" style="fill:none;fill-rule:evenodd;stroke:#000000;stroke-width:2.0px;stroke-linecap:butt;stroke-linejoin:miter;stroke-opacity:1"/>
<path class="bond-10 atom-10 atom-11" d="M 299.0,72.2 L 249.3,76.1" style="fill:none;fill-rule:evenodd;stroke:#000000;stroke-width:2.0px;stroke-linecap:butt;stroke-linejoin:miter;stroke-opacity:1"/>
<path class="bond-11 atom-5 atom-1" d="M 157.3,126.6 L 141.9,108.6" style="fill:none;fill-rule:evenodd;stroke:#000000;stroke-width:2.0px;stroke-linecap:butt;stroke-linejoin:miter;stroke-opacity:1"/>
<path class="bond-11 atom-5 atom-1" d="M 141.9,108.6 L 126.6,90.6" style="fill:none;fill-rule:evenodd;stroke:#0000FF;stroke-width:2.0px;stroke-linecap:butt;stroke-linejoin:miter;stroke-opacity:1"/>
<path class="bond-12 atom-11 atom-6" d="M 243.4,67.5 L 217.4,121.9" style="fill:none;fill-rule:evenodd;stroke:#000000;stroke-width:2.0px;stroke-linecap:butt;stroke-linejoin:miter;stroke-opacity:1"/>
<path d="M 63.6,103.2 L 62.4,103.7 L 62.6,106.7" style="fill:none;stroke:#000000;stroke-width:2.0px;stroke-linecap:butt;stroke-linejoin:miter;stroke-opacity:1;"/>
<path d="M 66.9,160.8 L 67.1,163.8 L 70.0,164.5" style="fill:none;stroke:#000000;stroke-width:2.0px;stroke-linecap:butt;stroke-linejoin:miter;stroke-opacity:1;"/>
<path d="M 122.8,177.2 L 125.7,177.9 L 127.3,175.4" style="fill:none;stroke:#000000;stroke-width:2.0px;stroke-linecap:butt;stroke-linejoin:miter;stroke-opacity:1;"/>
<path d="M 249.8,169.1 L 251.5,171.6 L 252.8,171.5" style="fill:none;stroke:#000000;stroke-width:2.0px;stroke-linecap:butt;stroke-linejoin:miter;stroke-opacity:1;"/>
<path d="M 337.1,113.6 L 337.6,112.5 L 335.9,110.0" style="fill:none;stroke:#000000;stroke-width:2.0px;stroke-linecap:butt;stroke-linejoin:miter;stroke-opacity:1;"/>
<path d="M 305.2,65.3 L 303.5,62.8 L 300.5,63.0" style="fill:none;stroke:#000000;stroke-width:2.0px;stroke-linecap:butt;stroke-linejoin:miter;stroke-opacity:1;"/>
<path d="M 246.4,67.2 L 243.4,67.5 L 242.1,70.2" style="fill:none;stroke:#000000;stroke-width:2.0px;stroke-linecap:butt;stroke-linejoin:miter;stroke-opacity:1;"/>
<path class="atom-1" d="M 114.4 72.1 L 120.0 81.2 Q 120.5 82.1, 121.4 83.7 Q 122.3 85.3, 122.3 85.4 L 122.3 72.1 L 124.6 72.1 L 124.6 89.2 L 122.3 89.2 L 116.3 79.3 Q 115.6 78.2, 114.8 76.8 Q 114.1 75.5, 113.9 75.1 L 113.9 89.2 L 111.7 89.2 L 111.7 72.1 L 114.4 72.1 " fill="#0000FF"/>
<path class="atom-8" d="M 307.8 158.4 L 313.4 167.4 Q 314.0 168.3, 314.9 169.9 Q 315.8 171.5, 315.8 171.6 L 315.8 158.4 L 318.1 158.4 L 318.1 175.4 L 315.7 175.4 L 309.7 165.5 Q 309.0 164.4, 308.3 163.1 Q 307.6 161.7, 307.3 161.3 L 307.3 175.4 L 305.1 175.4 L 305.1 158.4 L 307.8 158.4 " fill="#0000FF"/>
<rect x="1" y="5" width="18.0" height="18.0" fill="rgb(31, 119, 179)"/><text x="19.200000000000003" y="20" font-family="Helvetica" font-size="12" fill="black">CH2</text><rect x="1" y="30" width="18.0" height="18.0" fill="rgb(255, 127, 13)"/><text x="19.200000000000003" y="45" font-family="Helvetica" font-size="12" fill="black">CH3N</text><rect x="1" y="55" width="18.0" height="18.0" fill="rgb(44, 159, 44)"/><text x="19.200000000000003" y="70" font-family="Helvetica" font-size="12" fill="black">C5H4N</text><rect x="1" y="80" width="18.0" height="18.0" fill="rgb(214, 39, 40)"/><text x="19.200000000000003" y="95" font-family="Helvetica" font-size="12" fill="black">CH</text><text x="200.0" y="40" font-family="Helvetica" font-size="12" font-weight="bold" fill="black" text-anchor="middle"/></svg>