<svg xmlns="http://www.w3.org/2000/svg" xmlns:rdkit="http://www.rdkit.org/xml" xmlns:xlink="http://www.w3.org/1999/xlink" version="1.1" baseProfile="full" xml:space="preserve" width="600px" height="200px" viewBox="0 0 600 200">
<!-- END OF HEADER -->
<rect style="opacity:1.0;fill:#FFFFFF;stroke:none" width="600.0" height="200.0" x="0.0" y="0.0"> </rect>
<ellipse cx="442.0" cy="137.9" rx="12.4" ry="12.4" class="atom-0" style="fill:#1F77B4A5;fill-rule:evenodd;stroke:#1F77B4A5;stroke-width:1.0px;stroke-linecap:butt;stroke-linejoin:miter;stroke-opacity:1"/>
<ellipse cx="380.6" cy="128.9" rx="12.4" ry="12.4" class="atom-1" style="fill:#9467BDA5;fill-rule:evenodd;stroke:#9467BDA5;stroke-width:1.0px;stroke-linecap:butt;stroke-linejoin:miter;stroke-opacity:1"/>
<ellipse cx="342.1" cy="177.6" rx="12.4" ry="12.4" class="atom-2" style="fill:#9467BDA5;fill-rule:evenodd;stroke:#9467BDA5;stroke-width:1.0px;stroke-linecap:butt;stroke-linejoin:miter;stroke-opacity:1"/>
<ellipse cx="280.8" cy="168.6" rx="12.4" ry="12.4" class="atom-3" style="fill:#FF7F0EA5;fill-rule:evenodd;stroke:#FF7F0EA5;stroke-width:1.0px;stroke-linecap:butt;stroke-linejoin:miter;stroke-opacity:1"/>
<ellipse cx="257.9" cy="111.0" rx="12.4" ry="12.4" class="atom-4" style="fill:#2CA02CA5;fill-rule:evenodd;stroke:#2CA02CA5;stroke-width:1.0px;stroke-linecap:butt;stroke-linejoin:miter;stroke-opacity:1"/>
<ellipse cx="296.3" cy="62.3" rx="12.4" ry="12.4" class="atom-5" style="fill:#8C564BA5;fill-rule:evenodd;stroke:#8C564BA5;stroke-width:1.0px;stroke-linecap:butt;stroke-linejoin:miter;stroke-opacity:1"/>
<ellipse cx="357.7" cy="71.3" rx="12.4" ry="12.4" class="atom-6" style="fill:#8C564BA5;fill-rule:evenodd;stroke:#8C564BA5;stroke-width:1.0px;stroke-linecap:butt;stroke-linejoin:miter;stroke-opacity:1"/>
<ellipse cx="396.1" cy="22.8" rx="12.4" ry="12.8" class="atom-7" style="fill:#8C564BA5;fill-rule:evenodd;stroke:#8C564BA5;stroke-width:1.0px;stroke-linecap:butt;stroke-linejoin:miter;stroke-opacity:1"/>
<ellipse cx="196.5" cy="102.0" rx="12.4" ry="12.4" class="atom-8" style="fill:#D62728A5;fill-rule:evenodd;stroke:#D62728A5;stroke-width:1.0px;stroke-linecap:butt;stroke-linejoin:miter;stroke-opacity:1"/>
<ellipse cx="158.0" cy="150.7" rx="12.4" ry="12.4" class="atom-9" style="fill:#D62728A5;fill-rule:evenodd;stroke:#D62728A5;stroke-width:1.0px;stroke-linecap:butt;stroke-linejoin:miter;stroke-opacity:1"/>
<ellipse cx="173.6" cy="44.4" rx="12.4" ry="12.4" class="atom-10" style="fill:#1F77B4A5;fill-rule:evenodd;stroke:#1F77B4A5;stroke-width:1.0px;stroke-linecap:butt;stroke-linejoin:miter;stroke-opacity:1"/>
<path class="bond-0 atom-0 atom-1" d="M 442.0,137.9 L 380.6,128.9" style="fill:none;fill-rule:evenodd;stroke:#000000;stroke-width:2.0px;stroke-linecap:butt;stroke-linejoin:miter;stroke-opacity:1"/>
<path class="bond-1 atom-1 atom-2" d="M 380.6,128.9 L 342.1,177.6" style="fill:none;fill-rule:evenodd;stroke:#000000;stroke-width:2.0px;stroke-linecap:butt;stroke-linejoin:miter;stroke-opacity:1"/>
<path class="bond-1 atom-1 atom-2" d="M 370.0,127.4 L 338.2,167.6" style="fill:none;fill-rule:evenodd;stroke:#000000;stroke-width:2.0px;stroke-linecap:butt;stroke-linejoin:miter;stroke-opacity:1"/>
<path class="bond-2 atom-2 atom-3" d="M 342.1,177.6 L 280.8,168.6" style="fill:none;fill-rule:evenodd;stroke:#000000;stroke-width:2.0px;stroke-linecap:butt;stroke-linejoin:miter;stroke-opacity:1"/>
<path class="bond-3 atom-3 atom-4" d="M 280.8,168.6 L 257.9,111.0" style="fill:none;fill-rule:evenodd;stroke:#000000;stroke-width:2.0px;stroke-linecap:butt;stroke-linejoin:miter;stroke-opacity:1"/>
<path class="bond-4 atom-4 atom-5" d="M 257.9,111.0 L 296.3,62.3" style="fill:none;fill-rule:evenodd;stroke:#000000;stroke-width:2.0px;stroke-linecap:butt;stroke-linejoin:miter;stroke-opacity:1"/>
<path class="bond-5 atom-5 atom-6" d="M 296.3,62.3 L 357.7,71.3" style="fill:none;fill-rule:evenodd;stroke:#000000;stroke-width:2.0px;stroke-linecap:butt;stroke-linejoin:miter;stroke-opacity:1"/>
<path class="bond-6 atom-6 atom-7" d="M 359.7,76.3 L 375.3,56.5" style="fill:none;fill-rule:evenodd;stroke:#000000;stroke-width:2.0px;stroke-linecap:butt;stroke-linejoin:miter;stroke-opacity:1"/>
<path class="bond-6 atom-6 atom-7" d="M 375.3,56.5 L 390.9,36.7" style="fill:none;fill-rule:evenodd;stroke:#FF0000;stroke-width:2.0px;stroke-linecap:butt;stroke-linejoin:miter;stroke-opacity:1"/>
<path class="bond-6 atom-6 atom-7" d="M 352.4,70.5 L 368.0,50.7" style="fill:none;fill-rule:evenodd;stroke:#000000;stroke-width:2.0px;stroke-linecap:butt;stroke-linejoin:miter;stroke-opacity:1"/>
<path class="bond-6 atom-6 atom-7" d="M 368.0,50.7 L 383.6,30.9" style="fill:none;fill-rule:evenodd;stroke:#FF0000;stroke-width:2.0px;stroke-linecap:butt;stroke-linejoin:miter;stroke-opacity:1"/>
<path class="bond-7 atom-4 atom-8" d="M 257.9,111.0 L 196.5,102.0" style="fill:none;fill-rule:evenodd;stroke:#000000;stroke-width:2.0px;stroke-linecap:butt;stroke-linejoin:miter;stroke-opacity:1"/>
<path class="bond-8 atom-8 atom-9" d="M 194.5,97.0 L 154.4,147.8" style="fill:none;fill-rule:evenodd;stroke:#000000;stroke-width:2.0px;stroke-linecap:butt;stroke-linejoin:miter;stroke-opacity:1"/>
<path class="bond-8 atom-8 atom-9" d="M 201.8,102.8 L 161.7,153.6" style="fill:none;fill-rule:evenodd;stroke:#000000;stroke-width:2.0px;stroke-linecap:butt;stroke-linejoin:miter;stroke-opacity:1"/>
<path class="bond-9 atom-8 atom-10" d="M 196.5,102.0 L 173.6,44.4" style="fill:none;fill-rule:evenodd;stroke:#000000;stroke-width:2.0px;stroke-linecap:butt;stroke-linejoin:miter;stroke-opacity:1"/>
<path class="bond-10 atom-6 atom-1" d="M 357.7,71.3 L 380.6,128.9" style="fill:none;fill-rule:evenodd;stroke:#000000;stroke-width:2.0px;stroke-linecap:butt;stroke-linejoin:miter;stroke-opacity:1"/>
<path d="M 344.1,175.2 L 342.1,177.6 L 339.1,177.1" style="fill:none;stroke:#000000;stroke-width:2.0px;stroke-linecap:butt;stroke-linejoin:miter;stroke-opacity:1;"/>
<path d="M 283.8,169.1 L 280.8,168.6 L 279.6,165.7" style="fill:none;stroke:#000000;stroke-width:2.0px;stroke-linecap:butt;stroke-linejoin:miter;stroke-opacity:1;"/>
<path d="M 294.4,64.8 L 296.3,62.3 L 299.4,62.8" style="fill:none;stroke:#000000;stroke-width:2.0px;stroke-linecap:butt;stroke-linejoin:miter;stroke-opacity:1;"/>
<path d="M 354.6,70.8 L 357.7,71.3 L 358.8,74.2" style="fill:none;stroke:#000000;stroke-width:2.0px;stroke-linecap:butt;stroke-linejoin:miter;stroke-opacity:1;"/>
<path d="M 199.5,102.5 L 196.5,102.0 L 195.3,99.1" style="fill:none;stroke:#000000;stroke-width:2.0px;stroke-linecap:butt;stroke-linejoin:miter;stroke-opacity:1;"/>
<path class="atom-7" d="M 388.1 22.7 Q 388.1 18.4, 390.2 16.1 Q 392.2 13.7, 396.1 13.7 Q 400.0 13.7, 402.1 16.1 Q 404.2 18.4, 404.2 22.7 Q 404.2 26.9, 402.1 29.4 Q 400.0 31.8, 396.1 31.8 Q 392.3 31.8, 390.2 29.4 Q 388.1 27.0, 388.1 22.7 M 396.1 29.8 Q 398.8 29.8, 400.3 28.0 Q 401.7 26.2, 401.7 22.7 Q 401.7 19.2, 400.3 17.5 Q 398.8 15.7, 396.1 15.7 Q 393.5 15.7, 392.0 17.5 Q 390.6 19.2, 390.6 22.7 Q 390.6 26.2, 392.0 28.0 Q 393.5 29.8, 396.1 29.8 " fill="#FF0000"/>
<rect x="1" y="5" width="18.0" height="18.0" fill="rgb(31, 119, 179)"/><text x="19.200000000000003" y="20" font-family="Helvetica" font-size="12" fill="black">CH3</text><rect x="1" y="30" width="18.0" height="18.0" fill="rgb(255, 127, 13)"/><text x="19.200000000000003" y="45" font-family="Helvetica" font-size="12" fill="black">CH2</text><rect x="1" y="55" width="18.0" height="18.0" fill="rgb(44, 159, 44)"/><text x="19.200000000000003" y="70" font-family="Helvetica" font-size="12" fill="black">CH</text><rect x="1" y="80" width="18.0" height="18.0" fill="rgb(214, 39, 40)"/><text x="19.200000000000003" y="95" font-family="Helvetica" font-size="12" fill="black">CH2=C</text><rect x="1" y="105" width="18.0" height="18.0" fill="rgb(148, 103, 188)"/><text x="19.200000000000003" y="120" font-family="Helvetica" font-size="12" fill="black">CH=C</text><rect x="1" y="130" width="18.0" height="18.0" fill="rgb(140, 85, 75)"/><text x="19.200000000000003" y="145" font-family="Helvetica" font-size="12" fill="black">CH2CO</text><text x="300.0" y="40" font-family="Helvetica" font-size="12" font-weight="bold" fill="black" text-anchor="middle"/></svg>