<svg xmlns="http://www.w3.org/2000/svg" xmlns:rdkit="http://www.rdkit.org/xml" xmlns:xlink="http://www.w3.org/1999/xlink" version="1.1" baseProfile="full" xml:space="preserve" width="800px" height="200px" viewBox="0 0 800 200">
<!-- END OF HEADER -->
<rect style="opacity:1.0;fill:#FFFFFF;stroke:none" width="800.0" height="200.0" x="0.0" y="0.0"> </rect>
<ellipse cx="105.7" cy="115.1" rx="14.8" ry="14.8" class="atom-0" style="fill:#1F77B4A5;fill-rule:evenodd;stroke:#1F77B4A5;stroke-width:1.0px;stroke-linecap:butt;stroke-linejoin:miter;stroke-opacity:1"/>
<ellipse cx="176.4" cy="92.5" rx="14.8" ry="14.8" class="atom-1" style="fill:#9467BDA5;fill-rule:evenodd;stroke:#9467BDA5;stroke-width:1.0px;stroke-linecap:butt;stroke-linejoin:miter;stroke-opacity:1"/>
<ellipse cx="231.2" cy="142.4" rx="14.8" ry="14.8" class="atom-2" style="fill:#2CA02CA5;fill-rule:evenodd;stroke:#2CA02CA5;stroke-width:1.0px;stroke-linecap:butt;stroke-linejoin:miter;stroke-opacity:1"/>
<ellipse cx="301.9" cy="119.9" rx="14.8" ry="14.8" class="atom-3" style="fill:#2CA02CA5;fill-rule:evenodd;stroke:#2CA02CA5;stroke-width:1.0px;stroke-linecap:butt;stroke-linejoin:miter;stroke-opacity:1"/>
<ellipse cx="317.7" cy="47.4" rx="14.8" ry="14.8" class="atom-4" style="fill:#FF7F0EA5;fill-rule:evenodd;stroke:#FF7F0EA5;stroke-width:1.0px;stroke-linecap:butt;stroke-linejoin:miter;stroke-opacity:1"/>
<ellipse cx="388.4" cy="24.8" rx="14.8" ry="14.8" class="atom-5" style="fill:#FF7F0EA5;fill-rule:evenodd;stroke:#FF7F0EA5;stroke-width:1.0px;stroke-linecap:butt;stroke-linejoin:miter;stroke-opacity:1"/>
<ellipse cx="443.2" cy="74.8" rx="14.8" ry="14.8" class="atom-6" style="fill:#8C564BA5;fill-rule:evenodd;stroke:#8C564BA5;stroke-width:1.0px;stroke-linecap:butt;stroke-linejoin:miter;stroke-opacity:1"/>
<ellipse cx="513.9" cy="52.2" rx="14.8" ry="14.8" class="atom-7" style="fill:#D62728A5;fill-rule:evenodd;stroke:#D62728A5;stroke-width:1.0px;stroke-linecap:butt;stroke-linejoin:miter;stroke-opacity:1"/>
<ellipse cx="568.8" cy="102.1" rx="14.8" ry="14.8" class="atom-8" style="fill:#D62728A5;fill-rule:evenodd;stroke:#D62728A5;stroke-width:1.0px;stroke-linecap:butt;stroke-linejoin:miter;stroke-opacity:1"/>
<ellipse cx="553.0" cy="174.7" rx="14.8" ry="15.3" class="atom-9" style="fill:#D62728A5;fill-rule:evenodd;stroke:#D62728A5;stroke-width:1.0px;stroke-linecap:butt;stroke-linejoin:miter;stroke-opacity:1"/>
<ellipse cx="639.4" cy="79.7" rx="14.8" ry="15.3" class="atom-10" style="fill:#D62728A5;fill-rule:evenodd;stroke:#D62728A5;stroke-width:1.0px;stroke-linecap:butt;stroke-linejoin:miter;stroke-opacity:1"/>
<ellipse cx="694.3" cy="129.5" rx="14.8" ry="14.8" class="atom-11" style="fill:#1F77B4A5;fill-rule:evenodd;stroke:#1F77B4A5;stroke-width:1.0px;stroke-linecap:butt;stroke-linejoin:miter;stroke-opacity:1"/>
<ellipse cx="427.4" cy="147.2" rx="14.8" ry="14.8" class="atom-12" style="fill:#FF7F0EA5;fill-rule:evenodd;stroke:#FF7F0EA5;stroke-width:1.0px;stroke-linecap:butt;stroke-linejoin:miter;stroke-opacity:1"/>
<ellipse cx="356.8" cy="169.8" rx="14.8" ry="14.8" class="atom-13" style="fill:#FF7F0EA5;fill-rule:evenodd;stroke:#FF7F0EA5;stroke-width:1.0px;stroke-linecap:butt;stroke-linejoin:miter;stroke-opacity:1"/>
<path class="bond-0 atom-0 atom-1" d="M 105.7,115.1 L 176.4,92.5" style="fill:none;fill-rule:evenodd;stroke:#000000;stroke-width:2.0px;stroke-linecap:butt;stroke-linejoin:miter;stroke-opacity:1"/>
<path class="bond-1 atom-1 atom-2" d="M 176.4,92.5 L 231.2,142.4" style="fill:none;fill-rule:evenodd;stroke:#000000;stroke-width:2.0px;stroke-linecap:butt;stroke-linejoin:miter;stroke-opacity:1"/>
<path class="bond-2 atom-2 atom-3" d="M 231.2,142.4 L 301.9,119.9" style="fill:none;fill-rule:evenodd;stroke:#000000;stroke-width:2.0px;stroke-linecap:butt;stroke-linejoin:miter;stroke-opacity:1"/>
<path class="bond-3 atom-3 atom-4" d="M 301.9,119.9 L 317.7,47.4" style="fill:none;fill-rule:evenodd;stroke:#000000;stroke-width:2.0px;stroke-linecap:butt;stroke-linejoin:miter;stroke-opacity:1"/>
<path class="bond-3 atom-3 atom-4" d="M 314.1,116.0 L 327.2,56.0" style="fill:none;fill-rule:evenodd;stroke:#000000;stroke-width:2.0px;stroke-linecap:butt;stroke-linejoin:miter;stroke-opacity:1"/>
<path class="bond-4 atom-4 atom-5" d="M 317.7,47.4 L 388.4,24.8" style="fill:none;fill-rule:evenodd;stroke:#000000;stroke-width:2.0px;stroke-linecap:butt;stroke-linejoin:miter;stroke-opacity:1"/>
<path class="bond-5 atom-5 atom-6" d="M 388.4,24.8 L 443.2,74.8" style="fill:none;fill-rule:evenodd;stroke:#000000;stroke-width:2.0px;stroke-linecap:butt;stroke-linejoin:miter;stroke-opacity:1"/>
<path class="bond-5 atom-5 atom-6" d="M 385.6,37.4 L 431.0,78.7" style="fill:none;fill-rule:evenodd;stroke:#000000;stroke-width:2.0px;stroke-linecap:butt;stroke-linejoin:miter;stroke-opacity:1"/>
<path class="bond-6 atom-6 atom-7" d="M 443.2,74.8 L 513.9,52.2" style="fill:none;fill-rule:evenodd;stroke:#000000;stroke-width:2.0px;stroke-linecap:butt;stroke-linejoin:miter;stroke-opacity:1"/>
<path class="bond-7 atom-7 atom-8" d="M 513.9,52.2 L 568.8,102.1" style="fill:none;fill-rule:evenodd;stroke:#000000;stroke-width:2.0px;stroke-linecap:butt;stroke-linejoin:miter;stroke-opacity:1"/>
<path class="bond-8 atom-8 atom-9" d="M 564.0,97.8 L 557.2,129.1" style="fill:none;fill-rule:evenodd;stroke:#000000;stroke-width:2.0px;stroke-linecap:butt;stroke-linejoin:miter;stroke-opacity:1"/>
<path class="bond-8 atom-8 atom-9" d="M 557.2,129.1 L 550.4,160.3" style="fill:none;fill-rule:evenodd;stroke:#FF0000;stroke-width:2.0px;stroke-linecap:butt;stroke-linejoin:miter;stroke-opacity:1"/>
<path class="bond-8 atom-8 atom-9" d="M 574.9,100.2 L 568.1,131.4" style="fill:none;fill-rule:evenodd;stroke:#000000;stroke-width:2.0px;stroke-linecap:butt;stroke-linejoin:miter;stroke-opacity:1"/>
<path class="bond-8 atom-8 atom-9" d="M 568.1,131.4 L 561.3,162.7" style="fill:none;fill-rule:evenodd;stroke:#FF0000;stroke-width:2.0px;stroke-linecap:butt;stroke-linejoin:miter;stroke-opacity:1"/>
<path class="bond-9 atom-8 atom-10" d="M 568.8,102.1 L 598.1,92.8" style="fill:none;fill-rule:evenodd;stroke:#000000;stroke-width:2.0px;stroke-linecap:butt;stroke-linejoin:miter;stroke-opacity:1"/>
<path class="bond-9 atom-8 atom-10" d="M 598.1,92.8 L 627.3,83.4" style="fill:none;fill-rule:evenodd;stroke:#FF0000;stroke-width:2.0px;stroke-linecap:butt;stroke-linejoin:miter;stroke-opacity:1"/>
<path class="bond-10 atom-10 atom-11" d="M 651.5,90.5 L 672.9,110.0" style="fill:none;fill-rule:evenodd;stroke:#FF0000;stroke-width:2.0px;stroke-linecap:butt;stroke-linejoin:miter;stroke-opacity:1"/>
<path class="bond-10 atom-10 atom-11" d="M 672.9,110.0 L 694.3,129.5" style="fill:none;fill-rule:evenodd;stroke:#000000;stroke-width:2.0px;stroke-linecap:butt;stroke-linejoin:miter;stroke-opacity:1"/>
<path class="bond-11 atom-6 atom-12" d="M 443.2,74.8 L 427.4,147.2" style="fill:none;fill-rule:evenodd;stroke:#000000;stroke-width:2.0px;stroke-linecap:butt;stroke-linejoin:miter;stroke-opacity:1"/>
<path class="bond-12 atom-12 atom-13" d="M 427.4,147.2 L 356.8,169.8" style="fill:none;fill-rule:evenodd;stroke:#000000;stroke-width:2.0px;stroke-linecap:butt;stroke-linejoin:miter;stroke-opacity:1"/>
<path class="bond-12 atom-12 atom-13" d="M 417.9,138.6 L 359.5,157.2" style="fill:none;fill-rule:evenodd;stroke:#000000;stroke-width:2.0px;stroke-linecap:butt;stroke-linejoin:miter;stroke-opacity:1"/>
<path class="bond-13 atom-13 atom-3" d="M 356.8,169.8 L 301.9,119.9" style="fill:none;fill-rule:evenodd;stroke:#000000;stroke-width:2.0px;stroke-linecap:butt;stroke-linejoin:miter;stroke-opacity:1"/>
<path d="M 172.8,93.6 L 176.4,92.5 L 179.1,95.0" style="fill:none;stroke:#000000;stroke-width:2.0px;stroke-linecap:butt;stroke-linejoin:miter;stroke-opacity:1;"/>
<path d="M 228.5,139.9 L 231.2,142.4 L 234.8,141.3" style="fill:none;stroke:#000000;stroke-width:2.0px;stroke-linecap:butt;stroke-linejoin:miter;stroke-opacity:1;"/>
<path d="M 316.9,51.0 L 317.7,47.4 L 321.2,46.3" style="fill:none;stroke:#000000;stroke-width:2.0px;stroke-linecap:butt;stroke-linejoin:miter;stroke-opacity:1;"/>
<path d="M 384.8,26.0 L 388.4,24.8 L 391.1,27.3" style="fill:none;stroke:#000000;stroke-width:2.0px;stroke-linecap:butt;stroke-linejoin:miter;stroke-opacity:1;"/>
<path d="M 510.4,53.3 L 513.9,52.2 L 516.6,54.7" style="fill:none;stroke:#000000;stroke-width:2.0px;stroke-linecap:butt;stroke-linejoin:miter;stroke-opacity:1;"/>
<path d="M 566.0,99.6 L 568.8,102.1 L 570.2,101.6" style="fill:none;stroke:#000000;stroke-width:2.0px;stroke-linecap:butt;stroke-linejoin:miter;stroke-opacity:1;"/>
<path d="M 428.2,143.6 L 427.4,147.2 L 423.9,148.4" style="fill:none;stroke:#000000;stroke-width:2.0px;stroke-linecap:butt;stroke-linejoin:miter;stroke-opacity:1;"/>
<path d="M 360.3,168.7 L 356.8,169.8 L 354.0,167.3" style="fill:none;stroke:#000000;stroke-width:2.0px;stroke-linecap:butt;stroke-linejoin:miter;stroke-opacity:1;"/>
<path class="atom-9" d="M 543.3 174.6 Q 543.3 169.6, 545.8 166.8 Q 548.3 164.0, 553.0 164.0 Q 557.6 164.0, 560.1 166.8 Q 562.6 169.6, 562.6 174.6 Q 562.6 179.7, 560.1 182.7 Q 557.6 185.5, 553.0 185.5 Q 548.3 185.5, 545.8 182.7 Q 543.3 179.8, 543.3 174.6 M 553.0 183.2 Q 556.2 183.2, 557.9 181.0 Q 559.6 178.9, 559.6 174.6 Q 559.6 170.5, 557.9 168.4 Q 556.2 166.3, 553.0 166.3 Q 549.8 166.3, 548.0 168.4 Q 546.3 170.5, 546.3 174.6 Q 546.3 178.9, 548.0 181.0 Q 549.8 183.2, 553.0 183.2 " fill="#FF0000"/>
<path class="atom-10" d="M 629.8 79.6 Q 629.8 74.6, 632.3 71.7 Q 634.8 68.9, 639.4 68.9 Q 644.1 68.9, 646.6 71.7 Q 649.1 74.6, 649.1 79.6 Q 649.1 84.7, 646.5 87.6 Q 644.0 90.5, 639.4 90.5 Q 634.8 90.5, 632.3 87.6 Q 629.8 84.7, 629.8 79.6 M 639.4 88.1 Q 642.6 88.1, 644.4 86.0 Q 646.1 83.8, 646.1 79.6 Q 646.1 75.5, 644.4 73.4 Q 642.6 71.3, 639.4 71.3 Q 636.2 71.3, 634.5 73.4 Q 632.8 75.4, 632.8 79.6 Q 632.8 83.8, 634.5 86.0 Q 636.2 88.1, 639.4 88.1 " fill="#FF0000"/>
<rect x="1" y="5" width="18.0" height="18.0" fill="rgb(31, 119, 179)"/><text x="19.200000000000003" y="20" font-family="Helvetica" font-size="12" fill="black">CH3</text><rect x="1" y="30" width="18.0" height="18.0" fill="rgb(255, 127, 13)"/><text x="19.200000000000003" y="45" font-family="Helvetica" font-size="12" fill="black">ACH</text><rect x="1" y="55" width="18.0" height="18.0" fill="rgb(44, 159, 44)"/><text x="19.200000000000003" y="70" font-family="Helvetica" font-size="12" fill="black">ACCH2</text><rect x="1" y="80" width="18.0" height="18.0" fill="rgb(214, 39, 40)"/><text x="19.200000000000003" y="95" font-family="Helvetica" font-size="12" fill="black">CH2COO</text><rect x="1" y="105" width="18.0" height="18.0" fill="rgb(148, 103, 188)"/><text x="19.200000000000003" y="120" font-family="Helvetica" font-size="12" fill="black">CH2</text><rect x="1" y="130" width="18.0" height="18.0" fill="rgb(140, 85, 75)"/><text x="19.200000000000003" y="145" font-family="Helvetica" font-size="12" fill="black">AC</text><text x="400.0" y="40" font-family="Helvetica" font-size="12" font-weight="bold" fill="black" text-anchor="middle"/></svg>